<?xml version="1.0" standalone="no"?><!DOCTYPE svg PUBLIC "-//W3C//DTD SVG 1.1//EN" "http://www.w3.org/Graphics/SVG/1.1/DTD/svg11.dtd"><svg t="1559098626057" class="icon" style="" viewBox="0 0 1024 1024" version="1.1" xmlns="http://www.w3.org/2000/svg" p-id="6811" xmlns:xlink="http://www.w3.org/1999/xlink" width="250" height="250"><defs><style type="text/css"></style></defs><path d="M0 128.448C0 92.8 28.48 64 64 64h896c35.328 0 64 28.8 64 64.448v767.104C1024 931.2 995.52 960 960 960H64c-35.328 0-64-28.8-64-64.448V128.448zM192 288c0 17.152 14.464 32 32.32 32h63.36C306.304 320 320 305.664 320 288c0-17.152-14.464-32-32.32-32h-63.36A31.68 31.68 0 0 0 192 288z m192 0c0 17.152 14.08 32 31.424 32h321.152a32 32 0 0 0 0-64H415.424A32 32 0 0 0 384 288z m-192 192c0 17.152 14.464 32 32.32 32h63.36C306.304 512 320 497.664 320 480c0-17.152-14.464-32-32.32-32h-63.36A31.68 31.68 0 0 0 192 480z m192 0c0 17.152 14.08 32 31.424 32h321.152a32 32 0 0 0 0-64H415.424A32 32 0 0 0 384 480z m-192 256c0 17.152 14.464 32 32.32 32h63.36c18.624 0 32.32-14.336 32.32-32 0-17.152-14.464-32-32.32-32h-63.36a31.68 31.68 0 0 0-32.32 32z m192 0c0 17.152 14.08 32 31.424 32h321.152a32 32 0 0 0 0-64H415.424a32 32 0 0 0-31.424 32z" fill="#66BDFF" p-id="6812"></path></svg>