<?xml version="1.0" standalone="no"?><!DOCTYPE svg PUBLIC "-//W3C//DTD SVG 1.1//EN" "http://www.w3.org/Graphics/SVG/1.1/DTD/svg11.dtd"><svg t="1559098468112" class="icon" style="" viewBox="0 0 24 24" version="1.1" xmlns="http://www.w3.org/2000/svg" p-id="6602" xmlns:xlink="http://www.w3.org/1999/xlink" width="20" height="20"><defs><style type="text/css"></style></defs><path d="M918.016 119.986l-812.032 0c-23.197 0-42.002 18.803-42.002 42.001l0 700.029c0 23.196 18.804 42.001 42.002 42.001l812.032 0c23.195 0 42.002-18.803 42.002-42.001l0-700.029c0-23.197-18.807-42-42.001-42zM918.016 287.991l0 164.135-242.678 0 0-164.135 242.678 0zM390.661 657.474l0-163.347 242.678 0 0 163.347-242.678 0zM633.339 699.476l0 162.538-242.678 0 0-162.538 242.678 0zM348.66 657.474l-242.678 0 0-163.347 242.678 0 0 163.347zM633.339 287.991l0 164.135-242.678 0 0-164.135 242.678 0zM675.339 494.127l242.678 0 0 163.347-242.678 0 0-163.347zM399.996 161.986c23.197 0 42.002 18.803 42.002 42.004 0 23.196-18.804 42.001-42.002 42.001s-42.003-18.803-42.003-42.001c0-23.199 18.806-42.003 42.003-42.003zM273.991 161.986c23.195 0 42.002 18.803 42.002 42.004 0 23.196-18.805 42.001-42.002 42.001-23.197 0-42.003-18.803-42.003-42.001 0.001-23.199 18.806-42.003 42.003-42.003zM147.986 161.986c23.195 0 42.002 18.803 42.002 42.004 0 23.196-18.805 42.001-42.002 42.001-23.197 0-42.003-18.803-42.003-42.001 0.001-23.199 18.806-42.003 42.003-42.003zM147.986 287.991l200.674 0 0 164.135-242.678 0 0.001-164.135 42.002 0zM105.984 699.476l242.678 0 0 162.538-242.678 0 0-162.538zM675.339 862.014l0-162.538 242.678 0 0 162.538-242.678 0z" p-id="6603" fill="#6bacd5"></path></svg>